<svg width="1018" height="950" viewBox="0 0 1018 950" fill="none" xmlns="http://www.w3.org/2000/svg">
<path fill-rule="evenodd" clip-rule="evenodd" d="M209.304 352.05L799.581 161.885L1017.72 220.33L380.4 746.713C141.867 946.097 -116.016 457.455 209.304 352.05Z" fill="url(#paint0_linear_6_1965)"/>
<path d="M358.154 601.179C356.547 604.329 354.554 607.286 352.111 609.857C345.683 616.736 336.618 621.236 327.168 621.814C314.247 622.714 301.069 616.35 293.74 605.679C286.411 595.007 285.126 580.479 290.526 568.65C301.39 544.993 332.697 540.365 350.504 557.272C352.561 559.136 354.425 561.386 356.097 563.893C363.168 574.886 364.004 589.543 358.154 601.179Z" fill="white"/>
<path d="M347.419 609.151C341.826 614.229 334.562 617.572 326.976 618.086C315.469 618.858 303.769 613.201 297.212 603.686C290.655 594.172 289.562 581.186 294.383 570.708C297.212 564.537 301.583 559.844 306.726 556.629C303.705 559.394 301.198 562.865 299.333 566.915C294.512 577.394 295.605 590.379 302.162 599.894C308.719 609.408 320.419 615.065 331.926 614.293C337.39 613.908 342.726 612.108 347.419 609.151Z" fill="#E6E6E6"/>
<path d="M324.726 623.422C312.126 623.422 299.655 616.993 292.455 606.579C284.805 595.458 283.519 580.415 289.112 568.072C294.319 556.694 304.476 548.851 316.948 546.408C329.548 543.965 342.469 547.629 351.469 556.179C353.59 558.108 355.519 560.422 357.255 563.122C364.647 574.501 365.483 589.672 359.44 601.822C357.769 605.165 355.647 608.186 353.14 610.822C346.326 618.086 336.876 622.586 327.233 623.293C326.398 623.422 325.562 623.422 324.726 623.422ZM324.662 548.722C322.283 548.722 319.905 548.915 317.526 549.429C306.019 551.615 296.633 558.879 291.812 569.358C286.605 580.672 287.826 594.622 294.898 604.843C301.969 615.129 314.569 621.172 326.976 620.336C335.912 619.758 344.655 615.515 350.955 608.829C353.269 606.386 355.262 603.558 356.805 600.536C362.397 589.351 361.626 575.336 354.812 564.793C353.205 562.351 351.405 560.229 349.476 558.429C342.855 552.129 333.919 548.722 324.662 548.722Z" fill="#171515"/>
<path d="M238.712 602.336C237.555 603.686 236.269 604.972 234.855 606C229.519 610.115 222.64 612.107 215.826 612.75C204.898 613.779 193.198 611.529 184.648 604.65C178.219 599.507 173.912 591.407 173.591 583.307C173.462 580.543 173.848 577.843 174.683 575.208C176.098 570.965 181.755 570.708 186.255 570.515C205.476 569.615 225.083 568.008 244.24 567.108C244.562 570 244.819 572.893 245.012 575.85C245.59 585.429 244.69 595.072 238.712 602.336Z" fill="white"/>
<path d="M245.076 575.85C221.033 575.722 196.476 575.722 173.655 583.307C173.527 580.543 173.912 577.843 174.748 575.208C176.162 570.965 181.819 570.708 186.319 570.515C205.541 569.615 225.148 568.008 244.305 567.108C244.626 569.936 244.948 572.893 245.076 575.85Z" fill="#E6E6E6"/>
<path d="M210.876 614.486C200.397 614.486 190.754 611.4 183.747 605.807C174.169 598.093 169.862 585.3 173.333 574.693C175.069 569.486 181.497 569.165 186.19 568.908H186.254C195.897 568.458 205.733 567.815 215.311 567.236C224.826 566.593 234.661 566.015 244.304 565.565C244.69 565.565 245.14 565.693 245.397 565.95C245.654 566.208 245.847 566.593 245.847 566.979C247.261 579.965 247.968 593.465 239.933 603.236C238.647 604.779 237.233 606.065 235.818 607.157C229.519 611.979 221.611 613.65 216.083 614.229C214.283 614.422 212.547 614.486 210.876 614.486ZM242.954 568.65C233.826 569.1 224.504 569.679 215.44 570.258C205.861 570.9 196.026 571.479 186.383 571.929H186.319C182.269 572.122 177.254 572.379 176.226 575.593C173.14 585.043 177.062 596.486 185.676 603.429C193.197 609.472 204.19 612.3 215.761 611.207C220.904 610.693 228.233 609.15 234.018 604.715C235.304 603.75 236.526 602.593 237.683 601.243C244.626 592.822 244.24 580.607 242.954 568.65Z" fill="#171515"/>
<path d="M224.44 699.729C224.055 699.729 223.669 699.6 223.412 699.279C222.833 698.7 222.769 697.736 223.347 697.157C235.497 684.557 248.097 671.508 263.912 662.958C274.004 657.558 283.197 655.629 291.169 657.3C300.233 659.165 309.49 667.65 308.59 678C308.526 678.836 307.754 679.415 306.983 679.35C306.147 679.286 305.569 678.579 305.633 677.743C306.404 669.065 298.433 661.865 290.59 660.258C283.326 658.715 274.776 660.515 265.326 665.658C249.897 673.95 237.49 686.807 225.469 699.279C225.212 699.536 224.826 699.729 224.44 699.729Z" fill="#171515"/>
<path d="M358.155 601.179C356.548 604.329 354.555 607.286 352.112 609.858C346.069 607.479 341.183 601.886 338.741 595.715C335.205 586.779 335.912 576.301 340.669 568.008C343.112 563.765 346.583 559.779 350.505 557.336C352.562 559.201 354.426 561.451 356.098 563.958C363.169 574.886 364.005 589.543 358.155 601.179Z" fill="#171515"/>
<path d="M238.712 602.336C237.555 603.686 236.269 604.972 234.855 606C229.969 602.979 226.24 596.165 225.533 591.343C224.119 582.215 229.455 572.443 237.876 568.65C239.933 567.75 242.119 567.172 244.369 567.108C245.655 579.257 246.555 592.886 238.712 602.336Z" fill="#171515"/>
<path d="M226.177 605.037C220.262 608.508 212.934 610.115 205.798 609.344C194.934 608.187 184.712 601.629 179.891 592.565C175.07 583.565 175.841 572.444 181.82 564.344C185.355 559.587 190.048 556.308 195.384 554.444C192.17 556.308 189.341 558.815 187.027 561.965C181.048 570.065 180.277 581.187 185.098 590.187C189.92 599.187 200.141 605.808 211.005 606.965C216.148 607.479 221.419 606.772 226.177 605.037Z" fill="#E6E6E6"/>
<path d="M145.434 587.422C160.412 577.393 178.348 571.929 196.348 571.865C205.348 571.865 214.348 573.15 223.348 572.765C232.348 572.379 241.669 570.065 248.226 563.829C254.783 557.658 257.547 546.922 252.662 539.336C241.026 547.629 225.469 549.815 211.133 550.265C196.798 550.715 181.883 550.65 169.026 556.95C157.069 562.736 148.776 574.565 145.434 587.422Z" fill="#171515"/>
<path d="M383.74 548.208C368.761 538.179 350.825 532.715 332.825 532.651C323.825 532.651 314.825 533.936 305.826 533.551C296.826 533.165 287.504 530.851 280.947 524.615C274.39 518.443 271.626 507.708 276.511 500.122C288.147 508.415 303.704 510.601 318.04 511.051C332.375 511.501 347.29 511.436 360.147 517.736C372.104 523.522 380.397 535.351 383.74 548.208Z" fill="#171515"/>
<path d="M230.998 591.664H226.112C223.798 591.664 221.869 589.736 221.869 587.422C221.869 585.107 223.798 583.179 226.112 583.179H230.998C233.312 583.179 235.241 585.107 235.241 587.422C235.241 589.8 233.376 591.664 230.998 591.664Z" fill="white"/>
<path d="M341.697 590.764H336.811C334.497 590.764 332.568 588.836 332.568 586.522C332.568 584.207 334.497 582.279 336.811 582.279H341.697C344.011 582.279 345.94 584.207 345.94 586.522C345.94 588.9 344.075 590.764 341.697 590.764Z" fill="white"/>
<defs>
<linearGradient id="paint0_linear_6_1965" x1="930.052" y1="254.838" x2="161.516" y2="751.974" gradientUnits="userSpaceOnUse">
<stop offset="0.104167" stop-color="#B7A8FF" stop-opacity="0"/>
<stop offset="0.791667" stop-color="#B7A8FF"/>
</linearGradient>
</defs>
</svg>
